<?xml version="1.0" encoding="UTF-8"?>
<svg version="1.1" xmlns="http://www.w3.org/2000/svg" width="400" height="100">
<path d="M0 0 C2 2 2 2 2.0625 3.9375 C0.34960079 7.26253964 -2.62107647 7.77130054 -6 9 C-3.65401654 11.34598346 -2.22275925 11.65810236 0.953125 12.515625 C2.46108643 12.93328125 2.46108643 12.93328125 3.99951172 13.359375 C5.07217285 13.65328125 6.14483398 13.9471875 7.25 14.25 C38.34893034 23.08152585 38.34893034 23.08152585 45.265625 32.7734375 C46 35 46 35 46 42 C40.06 42 34.12 42 28 42 C29.59636147 46.06790181 29.59636147 46.06790181 32.625 47.625 C35.44698604 50.44698604 35.35263374 51.20991123 35.375 55.0625 C35.25866755 58.03792604 34.94932743 60.1520177 34 63 C30.78378085 63.36733467 28.12584651 63.66229965 25.25195312 61.97167969 C23.4927864 60.5152867 21.86858757 58.98597069 20.25 57.375 C19.68667969 56.85292969 19.12335938 56.33085938 18.54296875 55.79296875 C14.12638042 51.56432035 11.17522703 47.11118058 10 41 C6.2236068 40.7018576 6.2236068 40.7018576 4 42 C1.1786928 42.07234121 -1.61724998 42.09277519 -4.4375 42.0625 C-5.21416016 42.05798828 -5.99082031 42.05347656 -6.79101562 42.04882812 C-8.86070346 42.03634939 -10.93035687 42.01846064 -13 42 C-13.99 42 -14.98 42 -16 42 C-16.99 42 -17.98 42 -19 42 C-18.125 35.125 -18.125 35.125 -17 34 C-11.1589404 33.62913907 -11.1589404 33.62913907 -9 34 C-8.34 34.99 -7.68 35.98 -7 37 C-6.566875 36.505 -6.13375 36.01 -5.6875 35.5 C-4 34 -4 34 -1 34 C0.6875 36 0.6875 36 2 38 C2.66 35.69 3.32 33.38 4 31 C3.21625 30.7525 2.4325 30.505 1.625 30.25 C-1 29 -1 29 -1.94140625 27.11328125 C-3.15503509 24.6905019 -4.44241273 23.59727605 -6.5625 21.9375 C-9.19437653 19.87467786 -9.90432539 19.28702382 -11 16 C-8 14 -8 14 -7 14 C-9.67642489 11.81509993 -9.67642489 11.81509993 -12 12 C-12 12.66 -12 13.32 -12 14 C-12.66 14 -13.32 14 -14 14 C-14.41378906 14.82757813 -14.41378906 14.82757813 -14.8359375 15.671875 C-16.890625 19.78125 -18.9453125 23.890625 -21 28 C-22.65 27.67 -24.3 27.34 -26 27 C-25.690625 26.236875 -25.38125 25.47375 -25.0625 24.6875 C-24.32106407 22.81210323 -23.63771783 20.91315348 -23 19 C-22.34 19 -21.68 19 -21 19 C-20.896875 18.41992188 -20.79375 17.83984375 -20.6875 17.2421875 C-18.43127019 9.88380164 -10.49043295 4.46716289 -4 1 C-1.85546875 0.21484375 -1.85546875 0.21484375 0 0 Z M2 18 C4.13386823 22.26773647 5.64322581 23.32431762 10 25 C10.33 25.680625 10.66 26.36125 11 27.0625 C11.33 27.701875 11.66 28.34125 12 29 C12.825 29.165 13.65 29.33 14.5 29.5 C15.325 29.665 16.15 29.83 17 30 C18.3125 32.0625 18.3125 32.0625 19 34 C19.99 33.67 20.98 33.34 22 33 C16.76202972 26.36411483 10.6358726 19.69598401 2 18 Z M7 34 C7.99 35.485 7.99 35.485 9 37 C9.33 36.01 9.66 35.02 10 34 C9.01 34 8.02 34 7 34 Z M13 34 C13.33 35.65 13.66 37.3 14 39 C15.65 37.35 17.3 35.7 19 34 C17.02 34 15.04 34 13 34 Z M23 35 C23.66 36.32 24.32 37.64 25 39 C25.33 37.68 25.66 36.36 26 35 C25.01 35 24.02 35 23 35 Z M27 35 C27 35.33 27 35.66 27 36 C28.62324086 36.22162329 30.248721 36.42689803 31.875 36.625 C33.23238281 36.79902344 33.23238281 36.79902344 34.6171875 36.9765625 C35.40351562 36.98429687 36.18984375 36.99203125 37 37 C37.66 36.34 38.32 35.68 39 35 C35.04 35 31.08 35 27 35 Z " fill="#2232D2" transform="translate(56,18)"/>
<path d="M0 0 C3.99950372 0.11646082 3.99950372 0.11646082 7.875 -0.6875 C12.01839109 -1.24511525 14.4683637 -0.32571171 18 2 C19.3899408 4.7798816 19.18488204 6.9186326 19 10 C18 12.375 18 12.375 17 14 C18.32 14.33 19.64 14.66 21 15 C21.6875 18.3125 21.6875 18.3125 22 22 C20.4530268 24.1948938 19.53052968 24.90034249 16.87890625 25.3984375 C13.47538618 25.36400053 10.65280035 25.2388294 7.4375 24.0625 C5.05385626 20.64248942 5.3768913 17.02188345 6 13 C7.5625 10.125 7.5625 10.125 9 8 C8.505 6.515 8.505 6.515 8 5 C7.01 5.33 6.02 5.66 5 6 C4.34 12.27 3.68 18.54 3 25 C0.03 25 -2.94 25 -6 25 C-6.495 15.1 -6.495 15.1 -7 5 C-7.66 5 -8.32 5 -9 5 C-10.35281371 7.70562743 -10.20609362 9.91893655 -10.25 12.9375 C-10.27578125 13.99839844 -10.3015625 15.05929688 -10.328125 16.15234375 C-9.95946217 19.35181044 -9.38550754 19.9974292 -7 22 C-7 22.66 -7 23.32 -7 24 C-12.61 24 -18.22 24 -24 24 C-24 23.34 -24 22.68 -24 22 C-23.51015625 21.61714844 -23.0203125 21.23429687 -22.515625 20.83984375 C-20.19458942 18.02229799 -20.64330523 15.04008281 -20.75 11.5625 C-20.76546875 10.24378906 -20.7809375 8.92507812 -20.796875 7.56640625 C-20.95262668 4.83176615 -21.17943761 2.58741849 -22 0 C-18 0 -14 0 -10 0 C-6.27924477 -1.24025174 -3.84293009 -0.60677844 0 0 Z " fill="#0B0CE0" transform="translate(214,50)"/>
<path d="M0 0 C4.22880411 -0.14541967 8.45696413 -0.23411527 12.6875 -0.3125 C14.48477539 -0.3753418 14.48477539 -0.3753418 16.31835938 -0.43945312 C25.17205967 -0.56276371 25.17205967 -0.56276371 29.29296875 2.23828125 C31.80072032 6.29544455 32.08027465 9.37742942 31 14 C28.5625 17 28.5625 17 26 19 C25.67 19.33 25.34 19.66 25 20 C28.31114834 21.12880057 31.58978257 22.21302675 35 23 C35.36766818 29.49547111 35.36766818 29.49547111 33.76171875 31.69921875 C30.97531817 33.75658325 28.58508439 33.53428873 25.21875 33.4140625 C21.58628605 32.7361731 20.14419645 30.90097167 18 28 C16.1875 24.6875 16.1875 24.6875 15 22 C14.7497843 24.91634129 14.7497843 24.91634129 15 28 C15.99 28.66 16.98 29.32 18 30 C18 30.66 18 31.32 18 32 C12.06 32 6.12 32 0 32 C0 31.34 0 30.68 0 30 C0.99 29.34 1.98 28.68 3 28 C3.46604974 25.51677741 3.46604974 25.51677741 3.3984375 22.625 C3.40230469 21.55765625 3.40617187 20.4903125 3.41015625 19.390625 C3.39855469 18.27171875 3.38695313 17.1528125 3.375 16 C3.39240234 14.32164063 3.39240234 14.32164063 3.41015625 12.609375 C3.40628906 11.54203125 3.40242188 10.4746875 3.3984375 9.375 C3.39505371 8.39273438 3.39166992 7.41046875 3.38818359 6.3984375 C3.26008301 5.60695313 3.13198242 4.81546875 3 4 C2.01 3.34 1.02 2.68 0 2 C0 1.34 0 0.68 0 0 Z M14 4 C14 7.63 14 11.26 14 15 C15.98 15 17.96 15 20 15 C20.90979771 11.44351804 21.23405628 9.56666256 19.8125 6.125 C18.9153125 5.073125 18.9153125 5.073125 18 4 C16.68 4 15.36 4 14 4 Z " fill="#0607EF" transform="translate(120,42)"/>
<path d="M0 0 C2 2 2 2 2.0625 3.9375 C0.34960079 7.26253964 -2.62107647 7.77130054 -6 9 C-3.65401654 11.34598346 -2.22275925 11.65810236 0.953125 12.515625 C2.46108643 12.93328125 2.46108643 12.93328125 3.99951172 13.359375 C5.07217285 13.65328125 6.14483398 13.9471875 7.25 14.25 C38.34893034 23.08152585 38.34893034 23.08152585 45.265625 32.7734375 C46.29081167 35.88171623 46.1248542 38.75379079 46 42 C38.66666667 42 31.33333333 42 24 42 C23.67 40.35 23.34 38.7 23 37 C23.66 36.67 24.32 36.34 25 36 C23.84700061 34.84700061 22.69228393 33.69568971 21.53125 32.55078125 C20.50475221 31.51119038 19.50443644 30.44512697 18.53125 29.35546875 C11.56589839 21.79259923 2.61036235 17.31994336 -7 14 C-7.99 13.34 -8.98 12.68 -10 12 C-10.66 12 -11.32 12 -12 12 C-12 12.66 -12 13.32 -12 14 C-12.66 14 -13.32 14 -14 14 C-14.41378906 14.82757813 -14.41378906 14.82757813 -14.8359375 15.671875 C-16.890625 19.78125 -18.9453125 23.890625 -21 28 C-22.65 27.67 -24.3 27.34 -26 27 C-25.690625 26.236875 -25.38125 25.47375 -25.0625 24.6875 C-24.32106407 22.81210323 -23.63771783 20.91315348 -23 19 C-22.34 19 -21.68 19 -21 19 C-20.896875 18.41992188 -20.79375 17.83984375 -20.6875 17.2421875 C-18.43127019 9.88380164 -10.49043295 4.46716289 -4 1 C-1.85546875 0.21484375 -1.85546875 0.21484375 0 0 Z M27 35 C27 35.33 27 35.66 27 36 C28.62324086 36.22162329 30.248721 36.42689803 31.875 36.625 C33.23238281 36.79902344 33.23238281 36.79902344 34.6171875 36.9765625 C35.40351562 36.98429687 36.18984375 36.99203125 37 37 C37.66 36.34 38.32 35.68 39 35 C35.04 35 31.08 35 27 35 Z " fill="#E05E3F" transform="translate(56,18)"/>
<path d="M0 0 C3.46121174 2.16325734 4.70741598 3.12224793 6 7 C6.26914008 10.35357089 6.44505804 13.70674598 6.62109375 17.06640625 C6.7117863 20.11892169 6.7117863 20.11892169 9 22 C8.67 22.99 8.34 23.98 8 25 C7.24074219 24.91621094 6.48148437 24.83242187 5.69921875 24.74609375 C4.70535156 24.64425781 3.71148437 24.54242188 2.6875 24.4375 C1.70136719 24.33308594 0.71523438 24.22867188 -0.30078125 24.12109375 C-3.09930347 23.83397473 -3.09930347 23.83397473 -6 25 C-7.66267874 25.14220279 -9.3315173 25.22020567 -11 25.25 C-11.86625 25.27578125 -12.7325 25.3015625 -13.625 25.328125 C-16 25 -16 25 -17.7890625 23.671875 C-19.66397746 21.08328273 -19.38727735 19.09821879 -19 16 C-17.625 14.125 -17.625 14.125 -16 13 C-15.34 13 -14.68 13 -14 13 C-14 12.34 -14 11.68 -14 11 C-15.32 10.34 -16.64 9.68 -18 9 C-17.67 6.69 -17.34 4.38 -17 2 C-11.02769378 -0.71468464 -6.43144058 -1.82530409 0 0 Z M-7 4 C-9.36980013 6.95377498 -9.36980013 6.95377498 -9 11 C-7.35 10.67 -5.7 10.34 -4 10 C-4 8.35 -4 6.7 -4 5 C-4.99 4.67 -5.98 4.34 -7 4 Z M-10 18 C-10 18.66 -10 19.32 -10 20 C-8.33388095 20.042721 -6.66617115 20.04063832 -5 20 C-3.70366379 18.93354885 -3.70366379 18.93354885 -3.9375 16.4375 C-3.958125 15.633125 -3.97875 14.82875 -4 14 C-6.31579505 14 -8.36598215 16.57547162 -10 18 Z " fill="#1216D9" transform="translate(258,50)"/>
<path d="M0 0 C3.0604837 2.23937831 3.80338783 3.41016349 5 7 C5.23073973 10.35427201 5.38113332 13.7072787 5.5234375 17.06640625 C5.68070313 18.03449219 5.83796875 19.00257812 6 20 C6.99 20.66 7.98 21.32 9 22 C9 22.66 9 23.32 9 24 C8.09636719 23.98839844 7.19273437 23.97679688 6.26171875 23.96484375 C4.49248047 23.95130859 4.49248047 23.95130859 2.6875 23.9375 C1.51574219 23.92589844 0.34398437 23.91429688 -0.86328125 23.90234375 C-4.03059195 23.85100102 -4.03059195 23.85100102 -7 25 C-8.66267874 25.14220279 -10.3315173 25.22020567 -12 25.25 C-12.86625 25.27578125 -13.7325 25.3015625 -14.625 25.328125 C-17 25 -17 25 -18.7890625 23.671875 C-20.66397746 21.08328273 -20.38727735 19.09821879 -20 16 C-18.625 14.125 -18.625 14.125 -17 13 C-16.34 13 -15.68 13 -15 13 C-15 12.34 -15 11.68 -15 11 C-16.32 10.34 -17.64 9.68 -19 9 C-19.3125 6.75 -19.3125 6.75 -19 4 C-13.34358284 -1.65641716 -7.50802757 -1.63652514 0 0 Z M-8 4 C-8.66 6.31 -9.32 8.62 -10 11 C-8.02 10.34 -6.04 9.68 -4 9 C-4.66 7.35 -5.32 5.7 -6 4 C-6.66 4 -7.32 4 -8 4 Z M-11 18 C-11 18.66 -11 19.32 -11 20 C-8.58354218 20.16687448 -8.58354218 20.16687448 -6 20 C-5.34 19.34 -4.68 18.68 -4 18 C-4 16.68 -4 15.36 -4 14 C-7.18040834 14 -8.7084232 15.94964181 -11 18 Z " fill="#0406ED" transform="translate(179,50)"/>
<path d="M0 0 C1.60379341 -0.05416188 3.20811406 -0.09286638 4.8125 -0.125 C5.70582031 -0.14820313 6.59914063 -0.17140625 7.51953125 -0.1953125 C10 0 10 0 13 2 C13.25 5.0625 13.25 5.0625 13 8 C12.67 8.33 12.34 8.66 12 9 C12.99 9.33 13.98 9.66 15 10 C15.33 10.66 15.66 11.32 16 12 C17.65 8.04 19.3 4.08 21 0 C22.32 0.33 23.64 0.66 25 1 C26.16015625 3.21484375 26.16015625 3.21484375 27.0625 5.9375 C28.44270017 10.2180913 28.44270017 10.2180913 32 13 C32 8.71 32 4.42 32 0 C33.65 0 35.3 0 37 0 C38.8125 2 38.8125 2 40 4 C40 2.68 40 1.36 40 0 C41.65 0 43.3 0 45 0 C45 2.93593133 44.77500573 5.76556416 44.5 8.6875 C44.4071875 9.68136719 44.314375 10.67523438 44.21875 11.69921875 C44.1465625 12.45847656 44.074375 13.21773437 44 14 C41.61328125 14.15625 41.61328125 14.15625 39 14 C37.1875 11.5 37.1875 11.5 36 9 C36.495 11.475 36.495 11.475 37 14 C30.565 14.495 30.565 14.495 24 15 C23.67 13.68 23.34 12.36 23 11 C22.01 11 21.02 11 20 11 C20.33 11.99 20.66 12.98 21 14 C16.50832172 15.19600901 12.26730207 14.9185704 7.6875 14.5625 C6.94693359 14.51029297 6.20636719 14.45808594 5.44335938 14.40429688 C3.62847291 14.27549848 1.81416675 14.13856738 0 14 C0.33 13.01 0.66 12.02 1 11 C1.14153846 7.10769226 1.03692062 3.74443556 0 0 Z M6 3 C6 4.32 6 5.64 6 7 C6.66 7 7.32 7 8 7 C8 5.68 8 4.36 8 3 C7.34 3 6.68 3 6 3 Z M21 7 C22 9 22 9 22 9 Z " fill="#DC252C" transform="translate(281,59)"/>
<path d="M0 0 C1.98 0 3.96 0 6 0 C6 0.99 6 1.98 6 3 C3.525 2.01 3.525 2.01 1 1 C1 4.63 1 8.26 1 12 C2.98 12 4.96 12 7 12 C7.33 11.34 7.66 10.68 8 10 C8.66 11.65 9.32 13.3 10 15 C12.64452575 14.28795759 12.64452575 14.28795759 15 12 C15.76562117 8.34442851 15.93037367 4.72817347 16 1 C16.66 1.33 17.32 1.66 18 2 C18.78734859 10.03095559 18.78734859 10.03095559 15.5625 14 C14.716875 14.66 13.87125 15.32 13 16 C12.67 16.33 12.34 16.66 12 17 C15.31114834 18.12880057 18.58978257 19.21302675 22 20 C22.36766818 26.49547111 22.36766818 26.49547111 20.76171875 28.69921875 C17.97531817 30.75658325 15.58508439 30.53428873 12.21875 30.4140625 C8.58628605 29.7361731 7.14419645 27.90097167 5 25 C3.1875 21.6875 3.1875 21.6875 2 19 C1.67 20.98 1.34 22.96 1 25 C0.67 25 0.34 25 0 25 C-2.07016051 16.16200704 -1.85924012 8.8671452 0 0 Z " fill="#080AE4" transform="translate(133,45)"/>
<path d="M0 0 C4.62 0 9.24 0 14 0 C14.66 1.32 15.32 2.64 16 4 C18.0335948 5.26804566 18.0335948 5.26804566 20 6 C20 8.64 20 11.28 20 14 C20.66 14 21.32 14 22 14 C21.67 15.65 21.34 17.3 21 19 C16.58853338 19.44392117 14.5240389 19.34388077 10.76171875 16.875 C9.71617883 15.93940379 8.69161336 14.97992365 7.6875 14 C7.1605957 13.50395264 6.63369141 13.00790527 6.09082031 12.49682617 C2.05906001 8.50682247 0.42223514 5.59461563 0 0 Z " fill="#0304F3" transform="translate(69,62)"/>
<path d="M0 0 C7.48252838 1.37179687 14.05604954 3.92163279 21 7 C21 7.66 21 8.32 21 9 C21.86625 9.226875 22.7325 9.45375 23.625 9.6875 C27.68689136 11.26712442 29.85363024 12.99997302 33 16 C33.495 17.485 33.495 17.485 34 19 C29.00185773 19.65975478 23.93256472 20.29126054 19 19 C15.85770321 16.541913 13.72184009 13.9385871 11.296875 10.78125 C8.12226517 6.93716463 4.51262544 4.97291112 0 3 C0 2.01 0 1.02 0 0 Z " fill="#EC1C24" transform="translate(60,34)"/>
<path d="M0 0 C0.86882812 0.06703125 1.73765625 0.1340625 2.6328125 0.203125 C4.875 0.75 4.875 0.75 6.875 3.75 C5.225 3.75 3.575 3.75 1.875 3.75 C1.215 5.07 0.555 6.39 -0.125 7.75 C-0.455 7.09 -0.785 6.43 -1.125 5.75 C-1.785 5.75 -2.445 5.75 -3.125 5.75 C-3.455 7.4 -3.785 9.05 -4.125 10.75 C-2.145 10.09 -0.165 9.43 1.875 8.75 C1.545 9.74 1.215 10.73 0.875 11.75 C-1.015625 12.41015625 -1.015625 12.41015625 -3.375 12.8125 C-6.8315609 13.4685299 -9.90091185 14.29396019 -13.125 15.75 C-12.94035634 20.09184202 -12.94035634 20.09184202 -11.125 23.75 C-9.61030552 23.98192865 -8.08745438 24.16215238 -6.5625 24.3125 C-5.73621094 24.39628906 -4.90992188 24.48007813 -4.05859375 24.56640625 C-3.10146484 24.65728516 -3.10146484 24.65728516 -2.125 24.75 C-2.125 25.08 -2.125 25.41 -2.125 25.75 C-3.72832791 25.83121924 -5.33284026 25.88929134 -6.9375 25.9375 C-8.27748047 25.98970703 -8.27748047 25.98970703 -9.64453125 26.04296875 C-12.125 25.75 -12.125 25.75 -13.92578125 24.42578125 C-15.78247311 21.83125093 -15.51175552 19.84404418 -15.125 16.75 C-13.75 14.875 -13.75 14.875 -12.125 13.75 C-11.465 13.75 -10.805 13.75 -10.125 13.75 C-10.125 13.09 -10.125 12.43 -10.125 11.75 C-11.445 11.09 -12.765 10.43 -14.125 9.75 C-14.4375 7.5 -14.4375 7.5 -14.125 4.75 C-9.68773595 0.31273595 -6.09545307 -0.54586147 0 0 Z " fill="#1113D6" transform="translate(174.125,49.25)"/>
<path d="M0 0 C2 2 2 2 2.0625 3.9375 C0.34960079 7.26253964 -2.62107647 7.77130054 -6 9 C-5.67 10.32 -5.34 11.64 -5 13 C-7.31 12.67 -9.62 12.34 -12 12 C-12 12.66 -12 13.32 -12 14 C-12.66 14 -13.32 14 -14 14 C-14.41378906 14.82757813 -14.41378906 14.82757813 -14.8359375 15.671875 C-16.890625 19.78125 -18.9453125 23.890625 -21 28 C-22.65 27.67 -24.3 27.34 -26 27 C-25.690625 26.236875 -25.38125 25.47375 -25.0625 24.6875 C-24.32106407 22.81210323 -23.63771783 20.91315348 -23 19 C-22.34 19 -21.68 19 -21 19 C-20.896875 18.41992188 -20.79375 17.83984375 -20.6875 17.2421875 C-18.43127019 9.88380164 -10.49043295 4.46716289 -4 1 C-1.85546875 0.21484375 -1.85546875 0.21484375 0 0 Z " fill="#9B9BD5" transform="translate(56,18)"/>
<path d="M0 0 C1.65 0 3.3 0 5 0 C5.66 0.66 6.32 1.32 7 2 C9.06874034 2.6425235 9.06874034 2.6425235 11 3 C10.835 3.53625 10.67 4.0725 10.5 4.625 C9.90339788 7.45886009 9.9343632 10.1119806 10 13 C9.34 13 8.68 13 8 13 C8 16.3 8 19.6 8 23 C5.69 23 3.38 23 1 23 C0.67 15.41 0.34 7.82 0 0 Z " fill="#0102F1" transform="translate(208,51)"/>
<path d="M0 0 C2.32758311 0.93103324 3.74357132 1.65382128 5.25 3.6875 C6.26549697 6.81861566 6.04570975 9.72794357 6 13 C-1.33333333 13 -8.66666667 13 -16 13 C-16.33 11.35 -16.66 9.7 -17 8 C-15.68 7.01 -14.36 6.02 -13 5 C-13 5.66 -13 6.32 -13 7 C-11.37581255 7.08090971 -9.75048255 7.13914995 -8.125 7.1875 C-7.22007813 7.22230469 -6.31515625 7.25710937 -5.3828125 7.29296875 C-4.59648438 7.19628906 -3.81015625 7.09960938 -3 7 C-2.34 6.01 -1.68 5.02 -1 4 C-0.01 4 0.98 4 2 4 C1.34 2.68 0.68 1.36 0 0 Z " fill="#9C8F89" transform="translate(96,47)"/>
<path d="M0 0 C1.60379341 -0.05416188 3.20811406 -0.09286638 4.8125 -0.125 C5.70582031 -0.14820313 6.59914063 -0.17140625 7.51953125 -0.1953125 C10 0 10 0 13 2 C13.1875 5 13.1875 5 13 8 C13 8.66 13 9.32 13 10 C13 11.65 13 13.3 13 15 C8.71 14.67 4.42 14.34 0 14 C0.33 13.01 0.66 12.02 1 11 C1.14153846 7.10769226 1.03692062 3.74443556 0 0 Z M6 3 C6 4.32 6 5.64 6 7 C6.66 7 7.32 7 8 7 C8 5.68 8 4.36 8 3 C7.34 3 6.68 3 6 3 Z " fill="#E72128" transform="translate(281,59)"/>
<path d="M0 0 C3.99950372 0.11646082 3.99950372 0.11646082 7.875 -0.6875 C12.01839109 -1.24511525 14.4683637 -0.32571171 18 2 C19.42041821 4.84083641 19.31452272 6.85477278 19 10 C17 12.375 17 12.375 15 14 C15 12.35 15 10.7 15 9 C15.66 9 16.32 9 17 9 C16.67 8.01 16.34 7.02 16 6 C14.68 6 13.36 6 12 6 C11.34 7.98 10.68 9.96 10 12 C9.34 12 8.68 12 8 12 C8.33 10.02 8.66 8.04 9 6 C7.68 6 6.36 6 5 6 C4.34 6.66 3.68 7.32 3 8 C3.33 6.68 3.66 5.36 4 4 C2.68 4 1.36 4 0 4 C-0.33 3.34 -0.66 2.68 -1 2 C-4.3 2 -7.6 2 -11 2 C-8.74191042 -2.51617916 -4.15714716 -0.65639166 0 0 Z " fill="#090BDF" transform="translate(214,50)"/>
<path d="M0 0 C2.38581624 0.30949747 2.38581624 0.30949747 5.26953125 0.25390625 C6.84509831 0.71106561 8.40753647 1.21495154 9.95703125 1.75390625 C11.16939453 2.1715625 11.16939453 2.1715625 12.40625 2.59765625 C13.32857422 2.9225 13.32857422 2.9225 14.26953125 3.25390625 C13.93953125 4.90390625 13.60953125 6.55390625 13.26953125 8.25390625 C10.459675 7.74302329 7.81138794 7.11017501 5.08203125 6.25390625 C-1.03571254 4.64925214 -7.54161584 3.39725038 -13.73046875 5.25390625 C-13.73046875 3.60390625 -13.73046875 1.95390625 -13.73046875 0.25390625 C-8.94858064 -0.8786462 -4.8139516 -0.58418153 0 0 Z " fill="#989AD6" transform="translate(72.73046875,16.74609375)"/>
<path d="M0 0 C0.66 0.33 1.32 0.66 2 1 C3.42996426 5.28989278 3.38544316 9.56898963 3.62109375 14.06640625 C3.7117863 17.11892169 3.7117863 17.11892169 6 19 C5.67 19.99 5.34 20.98 5 22 C4.24074219 21.91621094 3.48148437 21.83242187 2.69921875 21.74609375 C1.70535156 21.64425781 0.71148437 21.54242188 -0.3125 21.4375 C-1.29863281 21.33308594 -2.28476562 21.22867188 -3.30078125 21.12109375 C-6.09930347 20.83397473 -6.09930347 20.83397473 -9 22 C-10.66267874 22.14220279 -12.3315173 22.22020567 -14 22.25 C-14.86625 22.27578125 -15.7325 22.3015625 -16.625 22.328125 C-19 22 -19 22 -20.7890625 20.671875 C-22.66397746 18.08328273 -22.38727735 16.09821879 -22 13 C-20.625 11.125 -20.625 11.125 -19 10 C-18.34 10 -17.68 10 -17 10 C-17 10.66 -17 11.32 -17 12 C-17.99 12 -18.98 12 -20 12 C-20 13.98 -20 15.96 -20 18 C-16.62902617 19.49821059 -14.79557881 20 -11 20 C-11.66 19.67 -12.32 19.34 -13 19 C-13 18.34 -13 17.68 -13 17 C-10.36 16.34 -7.72 15.68 -5 15 C-5 15.66 -5 16.32 -5 17 C-4.34 17 -3.68 17 -3 17 C-3 17.66 -3 18.32 -3 19 C-1.35 19.33 0.3 19.66 2 20 C1.855625 19.05898437 1.71125 18.11796875 1.5625 17.1484375 C1.376875 15.90320313 1.19125 14.65796875 1 13.375 C0.814375 12.14523438 0.62875 10.91546875 0.4375 9.6484375 C0.04597484 6.3833973 -0.08080924 3.28287549 0 0 Z " fill="#0A0EDF" transform="translate(261,53)"/>
<path d="M0 0 C0.33659249 2.41625321 0.66938388 4.83292808 1 7.25 C1.09539062 7.93191406 1.19078125 8.61382812 1.2890625 9.31640625 C1.7345226 12.59371988 2 15.68384153 2 19 C0.02 19 -1.96 19 -4 19 C-3.67 18.01 -3.34 17.02 -3 16 C-3.66 16 -4.32 16 -5 16 C-5.33 13.69 -5.66 11.38 -6 9 C-6.99 8.67 -7.98 8.34 -9 8 C-8.01 7.67 -7.02 7.34 -6 7 C-5.896875 6.21625 -5.79375 5.4325 -5.6875 4.625 C-4.82572663 1.33459258 -3.53157582 0 0 0 Z " fill="#0202F7" transform="translate(261,54)"/>
<path d="M0 0 C0.94552734 0.16242187 0.94552734 0.16242187 1.91015625 0.328125 C2.57015625 1.318125 3.23015625 2.308125 3.91015625 3.328125 C4.55984375 2.585625 4.55984375 2.585625 5.22265625 1.828125 C6.91015625 0.328125 6.91015625 0.328125 9.91015625 0.328125 C9.58015625 2.308125 9.25015625 4.288125 8.91015625 6.328125 C11.88015625 6.823125 11.88015625 6.823125 14.91015625 7.328125 C14.91015625 7.658125 14.91015625 7.988125 14.91015625 8.328125 C7.24348958 8.328125 -0.42317708 8.328125 -8.08984375 8.328125 C-7.06252732 0.25635308 -7.06252732 0.25635308 0 0 Z " fill="#4249C8" transform="translate(45.08984375,51.671875)"/>
<path d="M0 0 C3.63 0 7.26 0 11 0 C9.77472971 4.05281712 8.30119506 7.44360764 6 11 C7.32 10.67 8.64 10.34 10 10 C10 11.32 10 12.64 10 14 C6.04 14 2.08 14 -2 14 C-0.02 10.37 1.96 6.74 4 3 C3.01 3 2.02 3 1 3 C1 3.66 1 4.32 1 5 C0.34 5 -0.32 5 -1 5 C-0.67 3.35 -0.34 1.7 0 0 Z " fill="#C63238" transform="translate(329,59)"/>
<path d="M0 0 C-0.02320313 1.16917969 -0.04640625 2.33835938 -0.0703125 3.54296875 C-0.08907821 5.09113942 -0.10727755 6.63931703 -0.125 8.1875 C-0.14175781 8.95642578 -0.15851562 9.72535156 -0.17578125 10.51757812 C-0.21317118 14.87350497 0.13565069 17.98504301 2 22 C2 22.99 2 23.98 2 25 C0.68 25.33 -0.64 25.66 -2 26 C-4.75032372 17.55875487 -7.00099081 9.91350452 -5 1 C-3 0 -3 0 0 0 Z " fill="#7079BA" transform="translate(34,48)"/>
<path d="M0 0 C1.98 0 3.96 0 6 0 C6 0.99 6 1.98 6 3 C3.525 2.01 3.525 2.01 1 1 C1 4.63 1 8.26 1 12 C2.98 12 4.96 12 7 12 C7.33 11.34 7.66 10.68 8 10 C8.66 11.65 9.32 13.3 10 15 C12.64452575 14.28795759 12.64452575 14.28795759 15 12 C15.76562117 8.34442851 15.93037367 4.72817347 16 1 C16.66 1.33 17.32 1.66 18 2 C18.78734859 10.03095559 18.78734859 10.03095559 15.5625 14 C14.716875 14.66 13.87125 15.32 13 16 C12.67 16.33 12.34 16.66 12 17 C14.475 17.99 14.475 17.99 17 19 C15.375 19.75 15.375 19.75 13 20 C9.75 18.1875 9.75 18.1875 7 16 C7 15.34 7 14.68 7 14 C5.02 14 3.04 14 1 14 C1 14.66 1 15.32 1 16 C1.66 16 2.32 16 3 16 C2.34 18.97 1.68 21.94 1 25 C0.67 25 0.34 25 0 25 C-2.07016051 16.16200704 -1.85924012 8.8671452 0 0 Z " fill="#1215D3" transform="translate(133,45)"/>
<path d="M0 0 C4.29 0 8.58 0 13 0 C13 1.65 13 3.3 13 5 C11.68 4.34 10.36 3.68 9 3 C9.33 6.63 9.66 10.26 10 14 C7.36 14 4.72 14 2 14 C2.33 13.34 2.66 12.68 3 12 C3.22467831 10.46331135 3.40796805 8.92031946 3.5625 7.375 C3.64628906 6.55773437 3.73007812 5.74046875 3.81640625 4.8984375 C3.87699219 4.27195312 3.93757813 3.64546875 4 3 C2.35 3.66 0.7 4.32 -1 5 C-0.67 3.35 -0.34 1.7 0 0 Z " fill="#D22A32" transform="translate(267,59)"/>
<path d="M0 0 C4.875 1.875 4.875 1.875 6 3 C6.48654571 6.72607794 6.60102538 10.28555488 6 14 C4.14860916 16.23462334 2.72065362 16.80971404 0 18 C-1.95514695 14.7638947 -2.15885103 12.72537684 -1.6875 9 C-1.58824219 8.154375 -1.48898438 7.30875 -1.38671875 6.4375 C-1.03882936 4.24474262 -0.58001025 2.1415763 0 0 Z " fill="#0102F3" transform="translate(143,43)"/>
<path d="M0 0 C8.24318182 1.18011364 8.24318182 1.18011364 11.25 4.4375 C11.8275 5.283125 12.405 6.12875 13 7 C13.9075 7.495 14.815 7.99 15.75 8.5 C16.4925 8.995 17.235 9.49 18 10 C18.3125 12.6875 18.3125 12.6875 18 15 C14.01038009 14.47359182 11.94042463 13.47700671 9 10.75 C8.319375 10.12222656 7.63875 9.49445312 6.9375 8.84765625 C5.9784375 7.93306641 5.9784375 7.93306641 5 7 C4.46375 6.50371094 3.9275 6.00742187 3.375 5.49609375 C2.20165682 4.37941771 1.09298023 3.19544713 0 2 C0 1.34 0 0.68 0 0 Z " fill="#0506F0" transform="translate(47,34)"/>
<path d="M0 0 C1.5 1.375 1.5 1.375 3 3 C3 3.66 3 4.32 3 5 C2.34 5 1.68 5 1 5 C0.72414063 5.55171875 0.44828125 6.1034375 0.1640625 6.671875 C-2.91796875 12.8359375 -2.91796875 12.8359375 -6 19 C-7.65 18.67 -9.3 18.34 -11 18 C-10.690625 17.236875 -10.38125 16.47375 -10.0625 15.6875 C-9.32106407 13.81210323 -8.63771783 11.91315348 -8 10 C-7.34 10 -6.68 10 -6 10 C-5.938125 9.46375 -5.87625 8.9275 -5.8125 8.375 C-4.61972618 4.88843038 -2.43802834 2.75059607 0 0 Z " fill="#9593D2" transform="translate(41,27)"/>
<path d="M0 0 C0 0.66 0 1.32 0 2 C-0.66 2 -1.32 2 -2 2 C-2.33 4.31 -2.66 6.62 -3 9 C-1.35 9 0.3 9 2 9 C-1 11 -1 11 -4.5 10.75 C-8 10 -8 10 -11 8 C-10.67 6.02 -10.34 4.04 -10 2 C-9.01 2 -8.02 2 -7 2 C-7 1.34 -7 0.68 -7 0 C-3.86650268 -1.04449911 -3.01031744 -0.93423645 0 0 Z " fill="#0303F1" transform="translate(251,63)"/>
<path d="M0 0 C1.875 0.1875 1.875 0.1875 4 1 C5 3.5 5 3.5 6 6 C8.02463255 6.65213292 8.02463255 6.65213292 10 7 C10.33 7.99 10.66 8.98 11 10 C11.86625 10.556875 12.7325 11.11375 13.625 11.6875 C16 14 16 14 16.10546875 16.03515625 C15.84029975 18.03983386 15.42819474 20.02371658 15 22 C14.67 22 14.34 22 14 22 C13.9175 20.72125 13.835 19.4425 13.75 18.125 C13.53808712 15.93631811 13.53808712 15.93631811 13 14 C11.06616713 12.69934079 11.06616713 12.69934079 9 12 C8.67 10.68 8.34 9.36 8 8 C3.38 8 -1.24 8 -6 8 C-6 7.01 -6 6.02 -6 5 C-5.01 5 -4.02 5 -3 5 C-3 4.34 -3 3.68 -3 3 C-1.35 3.33 0.3 3.66 2 4 C2 3.01 2 2.02 2 1 C1.34 0.67 0.68 0.34 0 0 Z " fill="#1E2BE2" transform="translate(75,54)"/>
<path d="M0 0 C3.44110363 0.38088552 6.71248703 0.89377526 10 2 C12.3125 4.9375 12.3125 4.9375 14 8 C15.63495707 9.05104383 17.29883624 10.05988318 19 11 C19.99 12.485 19.99 12.485 21 14 C22.010625 14.309375 23.02125 14.61875 24.0625 14.9375 C25.031875 15.288125 26.00125 15.63875 27 16 C27.875 18.125 27.875 18.125 28 20 C24.49179941 18.8305998 21.96854485 17.19414185 19 15 C18.67 14.01 18.34 13.02 18 12 C17.236875 11.71125 16.47375 11.4225 15.6875 11.125 C13 10 13 10 11.1875 7.5 C8.10423822 3.97627225 5.54458203 3.83317337 1 3 C3.475 6.465 3.475 6.465 6 10 C2.2047869 8.50902342 0.38957269 6.24299151 -2 3 C-1.34 2.01 -0.68 1.02 0 0 Z " fill="#4740C3" transform="translate(47,32)"/>
<path d="M0 0 C0.33 0.66 0.66 1.32 1 2 C3.97 2 6.94 2 10 2 C10.33 2.66 10.66 3.32 11 4 C10.67 4.66 10.34 5.32 10 6 C10.66 6 11.32 6 12 6 C11.67 6.66 11.34 7.32 11 8 C6.66666667 8 2.33333333 8 -2 8 C-2.6875 5.6875 -2.6875 5.6875 -3 3 C-1.5625 1.1875 -1.5625 1.1875 0 0 Z " fill="#6E4E59" transform="translate(82,52)"/>
<path d="M0 0 C3 1 3 1 5.4375 3.5 C7.83695476 5.84093148 8.77134114 6.64126013 12 7 C12.33 6.01 12.66 5.02 13 4 C15.62901288 5.52206009 17.84365964 6.84365964 20 9 C19.01 9.66 18.02 10.32 17 11 C16.27034634 13.56282742 16.27034634 13.56282742 16 16 C13 12.25 13 12.25 13 10 C12.38125 10.185625 11.7625 10.37125 11.125 10.5625 C9 11 9 11 7 10 C7 9.01 7 8.02 7 7 C6.21625 6.773125 5.4325 6.54625 4.625 6.3125 C2 5 2 5 0.6875 2.375 C0.460625 1.59125 0.23375 0.8075 0 0 Z " fill="#070CE6" transform="translate(53,42)"/>
<path d="M0 0 C2.97 0.495 2.97 0.495 6 1 C6 1.66 6 2.32 6 3 C5.01 3 4.02 3 3 3 C3 3.66 3 4.32 3 5 C2.34 5 1.68 5 1 5 C1 5.99 1 6.98 1 8 C2.32 8.66 3.64 9.32 5 10 C5 10.33 5 10.66 5 11 C-1.15234375 11.09765625 -1.15234375 11.09765625 -3 11 C-4 10 -4 10 -4.0625 6.4375 C-4.041875 5.303125 -4.02125 4.16875 -4 3 C-2.68 2.67 -1.36 2.34 0 2 C0 1.34 0 0.68 0 0 Z " fill="#0102F5" transform="translate(165,62)"/>
<path d="M0 0 C-0.33 0.66 -0.66 1.32 -1 2 C-1.99 2.33 -2.98 2.66 -4 3 C-5.71567661 6.50294871 -5.71567661 6.50294871 -7 10 C-10.875 9.125 -10.875 9.125 -12 8 C-12.04080783 6.00041636 -12.04254356 3.99954746 -12 2 C-7.8794254 0.00214565 -4.54805635 -0.17835515 0 0 Z " fill="#0202F2" transform="translate(254,51)"/>
<path d="M0 0 C5.61137348 0.49222574 10.05153441 1.22885927 15 4 C16.4375 6.6875 16.4375 6.6875 17 9 C15.35 9.33 13.7 9.66 12 10 C12 9.34 12 8.68 12 8 C11.42765625 7.72285156 10.8553125 7.44570313 10.265625 7.16015625 C8.02232523 6.01143206 5.89123711 4.76586006 3.75 3.4375 C3.04359375 3.00308594 2.3371875 2.56867187 1.609375 2.12109375 C1.07828125 1.75113281 0.5471875 1.38117187 0 1 C0 0.67 0 0.34 0 0 Z " fill="#F6722A" transform="translate(81,42)"/>
<path d="M0 0 C5.40983607 -0.49180328 5.40983607 -0.49180328 8.25 1.875 C8.8275 2.57625 9.405 3.2775 10 4 C10.66 4.66 11.32 5.32 12 6 C11.34 6 10.68 6 10 6 C10 6.99 10 7.98 10 9 C7.25851328 8.62952882 5.41406801 8.31412056 3.1875 6.625 C2 5 2 5 2 2 C1.34 2 0.68 2 0 2 C0 1.34 0 0.68 0 0 Z " fill="#0203F6" transform="translate(134,59)"/>
<path d="M0 0 C3.3125 0.5625 3.3125 0.5625 7 2 C8.5368579 4.29468783 9.1584126 6.32672237 10 9 C14.62 9 19.24 9 24 9 C24.33 9.99 24.66 10.98 25 12 C12.60330579 13.63636364 12.60330579 13.63636364 8.30810547 10.93652344 C5.02269634 8.03781797 2.4193204 4.64890442 0 1 C0 0.67 0 0.34 0 0 Z " fill="#C24C4F" transform="translate(69,41)"/>
<path d="M0 0 C1.60379341 -0.05416188 3.20811406 -0.09286638 4.8125 -0.125 C5.70582031 -0.14820313 6.59914063 -0.17140625 7.51953125 -0.1953125 C10 0 10 0 13 2 C13.1875 5.125 13.1875 5.125 13 8 C12.01 8.33 11.02 8.66 10 9 C9.01 8.34 8.02 7.68 7 7 C7 5.68 7 4.36 7 3 C5.02 3 3.04 3 1 3 C0.67 2.01 0.34 1.02 0 0 Z " fill="#D52B2F" transform="translate(281,59)"/>
<path d="M0 0 C2.25 0.25 2.25 0.25 4 1 C3.67 1.66 3.34 2.32 3 3 C2.67 3.99 2.34 4.98 2 6 C1.01 6.33 0.02 6.66 -1 7 C-1 6.34 -1 5.68 -1 5 C-1.66 5 -2.32 5 -3 5 C-3 5.66 -3 6.32 -3 7 C-3.99 7 -4.98 7 -6 7 C-5.34 10.3 -4.68 13.6 -4 17 C-6.66605569 13.44525908 -7.41364439 12.29786012 -8.1875 8.25 C-8.34605469 7.45078125 -8.50460938 6.6515625 -8.66796875 5.828125 C-8.77753906 5.22484375 -8.88710937 4.6215625 -9 4 C-8.2575 4.0825 -7.515 4.165 -6.75 4.25 C-3.84128762 4.28141439 -3.84128762 4.28141439 -1.9375 1.9375 C-1.298125 1.298125 -0.65875 0.65875 0 0 Z " fill="#3A41CB" transform="translate(75,52)"/>
<path d="M0 0 C2.9153981 0 5.24399557 -0.15796458 8.0625 -0.625 C12 -1 12 -1 15 1 C12.69 1.33 10.38 1.66 8 2 C8 2.66 8 3.32 8 4 C6.37373596 5.38232443 4.7074998 6.71937515 3 8 C3.33 6.68 3.66 5.36 4 4 C2.68 4 1.36 4 0 4 C-0.33 3.34 -0.66 2.68 -1 2 C-4.3 2 -7.6 2 -11 2 C-8.74191042 -2.51617916 -4.15714716 -0.65639166 0 0 Z " fill="#171ACB" transform="translate(214,50)"/>
<path d="M0 0 C1.32 0.33 2.64 0.66 4 1 C3.67 1.66 3.34 2.32 3 3 C2.34 3 1.68 3 1 3 C0.34 5.31 -0.32 7.62 -1 10 C-0.01 10.33 0.98 10.66 2 11 C1.01 11 0.02 11 -1 11 C-0.67 11.99 -0.34 12.98 0 14 C-3.28696233 14.79953138 -4.71023192 15.09658936 -8 14 C-8 12.68 -8 11.36 -8 10 C-7.34 10 -6.68 10 -6 10 C-5.67 10.66 -5.34 11.32 -5 12 C-3.35 8.04 -1.7 4.08 0 0 Z " fill="#C3373D" transform="translate(302,59)"/>
<path d="M0 0 C0 1.65 0 3.3 0 5 C1.32 4.67 2.64 4.34 4 4 C4 5.32 4 6.64 4 8 C0.04 8 -3.92 8 -8 8 C-4.34782609 0 -4.34782609 0 0 0 Z " fill="#D42B32" transform="translate(335,65)"/>
<path d="M0 0 C0.66 0.33 1.32 0.66 2 1 C3.43009112 5.29027336 3.33282141 9.56686322 3.5234375 14.06640625 C3.68070313 15.03449219 3.83796875 16.00257812 4 17 C4.99 17.66 5.98 18.32 7 19 C7 19.66 7 20.32 7 21 C3.04 21 -0.92 21 -5 21 C-5 20.67 -5 20.34 -5 20 C-2.69 20 -0.38 20 2 20 C1.67 15.05 1.34 10.1 1 5 C0.34 5 -0.32 5 -1 5 C-0.67 3.35 -0.34 1.7 0 0 Z " fill="#1515D0" transform="translate(181,53)"/>
<path d="M0 0 C9.59453303 1.74259681 9.59453303 1.74259681 13 5 C12.34 5 11.68 5 11 5 C11 5.66 11 6.32 11 7 C6.87248551 6.39301257 3.6678852 4.96189209 0 3 C0 2.01 0 1.02 0 0 Z " fill="#DF2725" transform="translate(60,34)"/>
<path d="M0 0 C2.2477975 2.05233685 3.0022242 3.00667261 4 6 C4.66 6.33 5.32 6.66 6 7 C5.67 8.32 5.34 9.64 5 11 C4.01 11 3.02 11 2 11 C0.61328125 9.46875 0.61328125 9.46875 -0.6875 7.5 C-1.12449219 6.8503125 -1.56148437 6.200625 -2.01171875 5.53125 C-2.33785156 5.0259375 -2.66398437 4.520625 -3 4 C-2.01 2.68 -1.02 1.36 0 0 Z " fill="#9397C8" transform="translate(37,74)"/>
<path d="M0 0 C0 1.65 0 3.3 0 5 C0.99 5.33 1.98 5.66 3 6 C3 6.66 3 7.32 3 8 C0.03 8 -2.94 8 -6 8 C-5.65442041 4.8033888 -5.42865983 3.38847297 -3 1.1875 C-1 0 -1 0 0 0 Z " fill="#0102F9" transform="translate(201,65)"/>
<path d="M0 0 C0.66 0 1.32 0 2 0 C2.33 0.66 2.66 1.32 3 2 C5.02463255 2.65213292 5.02463255 2.65213292 7 3 C7.33 5.31 7.66 7.62 8 10 C5.6875 9.875 5.6875 9.875 3 9 C0.97798569 5.79266696 0 3.80845564 0 0 Z " fill="#E32225" transform="translate(316,63)"/>
<path d="M0 0 C1.07894531 0.30164063 2.15789063 0.60328125 3.26953125 0.9140625 C4.35621094 1.21054687 5.44289063 1.50703125 6.5625 1.8125 C7.39394531 2.05226563 8.22539063 2.29203125 9.08203125 2.5390625 C8.09203125 2.8690625 7.10203125 3.1990625 6.08203125 3.5390625 C6.08203125 4.5290625 6.08203125 5.5190625 6.08203125 6.5390625 C1.60243707 5.39720516 -2.06319626 4.10891083 -5.91796875 1.5390625 C-2.91796875 -0.4609375 -2.91796875 -0.4609375 0 0 Z " fill="#BB5D77" transform="translate(53.91796875,29.4609375)"/>
<path d="M0 0 C0 0.66 0 1.32 0 2 C-0.99 2 -1.98 2 -3 2 C-3 3.98 -3 5.96 -3 8 C1.94816714 10.80396138 6.61682285 9.77350507 12 9 C11.67 9.66 11.34 10.32 11 11 C8.09458095 11.96847302 6.03362546 12.19582812 3 12.25 C1.700625 12.28867188 1.700625 12.28867188 0.375 12.328125 C-2 12 -2 12 -3.7890625 10.671875 C-5.66397746 8.08328273 -5.38727735 6.09821879 -5 3 C-3.36508916 0.77057613 -2.79808925 0 0 0 Z " fill="#141AC8" transform="translate(244,63)"/>
<path d="M0 0 C0.4125 0.474375 0.825 0.94875 1.25 1.4375 C2.89078817 3.15276627 2.89078817 3.15276627 5.125 3.5 C5.74375 3.665 6.3625 3.83 7 4 C7.33 4.99 7.66 5.98 8 7 C8.86625 7.556875 9.7325 8.11375 10.625 8.6875 C13 11 13 11 13.10546875 13.03515625 C12.84029975 15.03983386 12.42819474 17.02371658 12 19 C11.67 19 11.34 19 11 19 C10.9175 17.72125 10.835 16.4425 10.75 15.125 C10.53808712 12.93631811 10.53808712 12.93631811 10 11 C8.06616713 9.69934079 8.06616713 9.69934079 6 9 C5.25 6.875 5.25 6.875 5 5 C3.68 5 2.36 5 1 5 C0.67 3.35 0.34 1.7 0 0 Z " fill="#282CC7" transform="translate(78,57)"/>
<path d="M0 0 C0.66 0.66 1.32 1.32 2 2 C1.625 4.125 1.625 4.125 1 6 C0.01 5.34 -0.98 4.68 -2 4 C-4.65245602 4.66096786 -4.65245602 4.66096786 -7 6 C-7.33 6.66 -7.66 7.32 -8 8 C-8.33 6.68 -8.66 5.36 -9 4 C-3.26833631 0.33810376 -3.26833631 0.33810376 0 0 Z " fill="#B0B1E3" transform="translate(56,18)"/>
<path d="M0 0 C1.2065625 0.0309375 1.2065625 0.0309375 2.4375 0.0625 C2.4375 1.3825 2.4375 2.7025 2.4375 4.0625 C1.7775 4.0625 1.1175 4.0625 0.4375 4.0625 C0.4375 5.7125 0.4375 7.3625 0.4375 9.0625 C-0.8825 9.3925 -2.2025 9.7225 -3.5625 10.0625 C-3.376875 9.505625 -3.19125 8.94875 -3 8.375 C-2.48811498 5.66932204 -2.98593384 3.72911851 -3.5625 1.0625 C-2.5625 0.0625 -2.5625 0.0625 0 0 Z " fill="#0102F7" transform="translate(228.5625,54.9375)"/>
<path d="M0 0 C4.62 0 9.24 0 14 0 C13.67 0.66 13.34 1.32 13 2 C9.7 2 6.4 2 3 2 C3.33 3.32 3.66 4.64 4 6 C4 6.66 4 7.32 4 8 C4.99 8.33 5.98 8.66 7 9 C6.67 9.99 6.34 10.98 6 12 C1.6409923 8.51279384 1.05447817 5.27239085 0 0 Z " fill="#1011DF" transform="translate(69,62)"/>
<path d="M0 0 C0.66 0 1.32 0 2 0 C3.125 1.6875 3.125 1.6875 4 4 C3.125 6.75 3.125 6.75 2 9 C0.35 8.67 -1.3 8.34 -3 8 C-2.690625 7.236875 -2.38125 6.47375 -2.0625 5.6875 C-1.32106407 3.81210323 -0.63771783 1.91315348 0 0 Z " fill="#8895D0" transform="translate(33,37)"/>
<path d="M0 0 C3.11257569 0 5.10765685 0.17361624 8 1 C8.33 3.31 8.66 5.62 9 8 C8.01 8.495 8.01 8.495 7 9 C6.67 7.35 6.34 5.7 6 4 C3.03 3.505 3.03 3.505 0 3 C0 2.01 0 1.02 0 0 Z " fill="#1213D2" transform="translate(227,64)"/>
<path d="M0 0 C4.29 0 8.58 0 13 0 C13 1.65 13 3.3 13 5 C11.68 4.34 10.36 3.68 9 3 C9 2.34 9 1.68 9 1 C6.69 1 4.38 1 2 1 C1.67 2.32 1.34 3.64 1 5 C0.34 5 -0.32 5 -1 5 C-0.67 3.35 -0.34 1.7 0 0 Z " fill="#AD3444" transform="translate(267,59)"/>
<path d="M0 0 C0.99 0.495 0.99 0.495 2 1 C3.14077657 4.42232972 3.09815117 7.08673217 3.0625 10.6875 C3.05347656 11.86699219 3.04445313 13.04648438 3.03515625 14.26171875 C3.02355469 15.16535156 3.01195312 16.06898437 3 17 C2.34 16.67 1.68 16.34 1 16 C0.68758545 13.28553021 0.48663408 10.66090639 0.375 7.9375 C0.33632813 7.17888672 0.29765625 6.42027344 0.2578125 5.63867188 C0.16326438 3.75952805 0.08053244 1.87979664 0 0 Z " fill="#1B16CE" transform="translate(261,53)"/>
<path d="M0 0 C3.94727588 -0.17942163 6.5980513 -0.09350689 10 2 C10 2.66 10 3.32 10 4 C10.94875 4.268125 11.8975 4.53625 12.875 4.8125 C16 6 16 6 18 9 C15.39386484 8.03200694 13.05326696 7.0331119 10.6875 5.5625 C7.24352631 3.56018972 3.75230089 2.33556472 0 1 C0 0.67 0 0.34 0 0 Z " fill="#E62E17" transform="translate(71,39)"/>
<path d="M0 0 C1.32 0 2.64 0 4 0 C4.33 2.31 4.66 4.62 5 7 C3.68 7.33 2.36 7.66 1 8 C-0.35439668 5.29120665 -0.06501451 2.99066732 0 0 Z " fill="#8E92CA" transform="translate(31,66)"/>
<path d="M0 0 C1.65 0 3.3 0 5 0 C5 2.93593133 4.77500573 5.76556416 4.5 8.6875 C4.4071875 9.68136719 4.314375 10.67523438 4.21875 11.69921875 C4.1465625 12.45847656 4.074375 13.21773437 4 14 C3.67 14 3.34 14 3 14 C3 11.36 3 8.72 3 6 C2.34 6 1.68 6 1 6 C0.67 4.02 0.34 2.04 0 0 Z " fill="#C2393B" transform="translate(321,59)"/>
<path d="M0 0 C3 1 3 1 4 3 C6.52733235 3.65555119 6.52733235 3.65555119 9 4 C9.33 3.01 9.66 2.02 10 1 C14.875 2.75 14.875 2.75 16 5 C13.89758397 5.13496251 11.7927039 5.23197307 9.6875 5.3125 C8.51574219 5.37050781 7.34398438 5.42851563 6.13671875 5.48828125 C3 5 3 5 1.08203125 2.48046875 C0.72496094 1.66191406 0.36789063 0.84335937 0 0 Z " fill="#E02424" transform="translate(76,46)"/>
<path d="M0 0 C0.33 0.66 0.66 1.32 1 2 C3.35599235 2.46751788 3.35599235 2.46751788 6.0625 2.625 C7.44115234 2.73714844 7.44115234 2.73714844 8.84765625 2.8515625 C9.55792969 2.90054688 10.26820313 2.94953125 11 3 C11.33 2.01 11.66 1.02 12 0 C12.99 0.66 13.98 1.32 15 2 C15 2.66 15 3.32 15 4 C9.06 4 3.12 4 -3 4 C-3 3.34 -3 2.68 -3 2 C-2.01 1.34 -1.02 0.68 0 0 Z " fill="#1113C6" transform="translate(123,70)"/>
<path d="M0 0 C-0.99 0.66 -1.98 1.32 -3 2 C-3.72965366 4.56282742 -3.72965366 4.56282742 -4 7 C-7 3.25 -7 3.25 -7 1 C-8.32 1.33 -9.64 1.66 -11 2 C-11 1.34 -11 0.68 -11 0 C-3.375 -2.25 -3.375 -2.25 0 0 Z " fill="#1624C6" transform="translate(73,51)"/>
<path d="M0 0 C-0.33 1.65 -0.66 3.3 -1 5 C-5.75 4.25 -5.75 4.25 -8 2 C-7.34 2 -6.68 2 -6 2 C-6 1.34 -6 0.68 -6 0 C-3.50907189 -1.24546405 -2.58919267 -0.7767578 0 0 Z " fill="#A4A7CC" transform="translate(87,20)"/>
<path d="M0 0 C2.375 0.3125 2.375 0.3125 5 1 C5.66 1.99 6.32 2.98 7 4 C10.58357241 4.25015873 10.58357241 4.25015873 14 4 C14 4.99 14 5.98 14 7 C10.53283176 7.42455121 7.98768533 7.63494057 4.9765625 5.69921875 C3.22128319 4.19827583 1.55578118 2.70710336 0 1 C0 0.67 0 0.34 0 0 Z " fill="#2B2FC4" transform="translate(76,74)"/>
<path d="M0 0 C0.66 0.33 1.32 0.66 2 1 C2.7166207 3.31847874 3.38242027 5.65319703 4 8 C4.33 8.66 4.66 9.32 5 10 C-1.435 10.495 -1.435 10.495 -8 11 C-8 10.67 -8 10.34 -8 10 C-5.36 9.67 -2.72 9.34 0 9 C0 6.03 0 3.06 0 0 Z " fill="#C0363E" transform="translate(313,63)"/>
<path d="M0 0 C2.31 0 4.62 0 7 0 C7.33 0.99 7.66 1.98 8 3 C8.99 3 9.98 3 11 3 C10.67 3.99 10.34 4.98 10 6 C8.02 6 6.04 6 4 6 C3.67 5.01 3.34 4.02 3 3 C3.66 3 4.32 3 5 3 C5 2.34 5 1.68 5 1 C3.35 1 1.7 1 0 1 C0 0.67 0 0.34 0 0 Z " fill="#2A33D4" transform="translate(40,53)"/>
<path d="M0 0 C2.62187494 1.04874998 3.79371361 1.64931313 5.25 4.125 C5.4975 4.74375 5.745 5.3625 6 6 C5 7 5 7 1.9375 7.0625 C0.968125 7.041875 -0.00125 7.02125 -1 7 C-1 6.01 -1 5.02 -1 4 C-0.01 4 0.98 4 2 4 C1.34 2.68 0.68 1.36 0 0 Z " fill="#E7A681" transform="translate(96,47)"/>
<path d="M0 0 C1.32 0 2.64 0 4 0 C4 0.66 4 1.32 4 2 C5.65 2.33 7.3 2.66 9 3 C5.91190305 4.76462683 4.76687864 5 1 5 C0.67 3.35 0.34 1.7 0 0 Z " fill="#434286" transform="translate(79,55)"/>
<path d="M0 0 C3 1 3 1 4 3 C4.3125 5.875 4.3125 5.875 4 9 C2 11.375 2 11.375 0 13 C0 11.35 0 9.7 0 8 C0.66 8 1.32 8 2 8 C1.34 5.36 0.68 2.72 0 0 Z " fill="#1615CA" transform="translate(229,51)"/>
<path d="M0 0 C2.375 0.6875 2.375 0.6875 5 2 C6.3125 4.625 6.3125 4.625 7 7 C5.35 7.33 3.7 7.66 2 8 C1.855625 7.236875 1.71125 6.47375 1.5625 5.6875 C1.0367406 2.91827092 1.0367406 2.91827092 0 0 Z " fill="#E68539" transform="translate(91,44)"/>
<path d="M0 0 C1.44096586 0.42594588 2.87768712 0.86626633 4.3125 1.3125 C5.11300781 1.55613281 5.91351563 1.79976562 6.73828125 2.05078125 C9 3 9 3 12 6 C6.06 4.515 6.06 4.515 0 3 C0 2.01 0 1.02 0 0 Z " fill="#E28543" transform="translate(79,38)"/>
<path d="M0 0 C1.62463842 -0.05395478 3.24978541 -0.09277195 4.875 -0.125 C5.77992188 -0.14820313 6.68484375 -0.17140625 7.6171875 -0.1953125 C10 0 10 0 12 2 C10.37585622 2.19477739 8.75063577 2.38059458 7.125 2.5625 C6.22007812 2.66691406 5.31515625 2.77132812 4.3828125 2.87890625 C2 3 2 3 0 2 C0 1.34 0 0.68 0 0 Z " fill="#C2353C" transform="translate(281,59)"/>
<path d="M0 0 C-0.33 1.98 -0.66 3.96 -1 6 C-2.32 6.33 -3.64 6.66 -5 7 C-5 6.34 -5 5.68 -5 5 C-5.66 4.67 -6.32 4.34 -7 4 C-3.375 0 -3.375 0 0 0 Z " fill="#4148DC" transform="translate(55,52)"/>
<path d="M0 0 C1.54571278 2.31856917 2.79618552 4.50638429 4 7 C3 8 3 8 -0.0625 8.0625 C-1.031875 8.041875 -2.00125 8.02125 -3 8 C-2.67 7.34 -2.34 6.68 -2 6 C-1.32136945 4.0040278 -0.65358081 2.00431449 0 0 Z " fill="#D7272C" transform="translate(307,65)"/>
<path d="M0 0 C0.33 0.66 0.66 1.32 1 2 C3.02463255 2.65213292 3.02463255 2.65213292 5 3 C4.6875 4.9375 4.6875 4.9375 4 7 C3.01 7.33 2.02 7.66 1 8 C1 7.34 1 6.68 1 6 C0.34 5.34 -0.32 4.68 -1 4 C-0.625 1.875 -0.625 1.875 0 0 Z " fill="#0204F7" transform="translate(163,54)"/>
<path d="M0 0 C2.98704569 0.49784095 4.39324263 1.26216175 7 3 C6.67 3.66 6.34 4.32 6 5 C3.69 4.67 1.38 4.34 -1 4 C-1 1 -1 1 0 0 Z " fill="#B3ACE5" transform="translate(44,26)"/>
<path d="M0 0 C1.98 0.495 1.98 0.495 4 1 C4 2.65 4 4.3 4 6 C1.525 5.01 1.525 5.01 -1 4 C-0.67 2.68 -0.34 1.36 0 0 Z " fill="#8C7672" transform="translate(93,54)"/>
<path d="M0 0 C3.69418201 1.231394 5.35109746 3.20791354 8 6 C7.67 6.99 7.34 7.98 7 9 C7 8.34 7 7.68 7 7 C6.21625 6.773125 5.4325 6.54625 4.625 6.3125 C2 5 2 5 0.6875 2.375 C0.460625 1.59125 0.23375 0.8075 0 0 Z " fill="#262AC0" transform="translate(53,42)"/>
<path d="M0 0 C0.66 0.33 1.32 0.66 2 1 C1.42415568 3.38564077 0.77772405 5.66682784 0 8 C-0.99 7.67 -1.98 7.34 -3 7 C-2.625 5.0625 -2.625 5.0625 -2 3 C-1.34 2.67 -0.68 2.34 0 2 C0 1.34 0 0.68 0 0 Z " fill="#9FA0DF" transform="translate(38,32)"/>
<path d="M0 0 C-0.33 1.65 -0.66 3.3 -1 5 C-2.65 5 -4.3 5 -6 5 C-3.74193548 0 -3.74193548 0 0 0 Z " fill="#D92528" transform="translate(333,68)"/>
<path d="M0 0 C0.99 0.33 1.98 0.66 3 1 C3 2.32 3 3.64 3 5 C1.68 5.33 0.36 5.66 -1 6 C-1.33 5.01 -1.66 4.02 -2 3 C-1.34 2.01 -0.68 1.02 0 0 Z " fill="#797FC7" transform="translate(31,61)"/>
<path d="M0 0 C1.65 0 3.3 0 5 0 C4.67 0.99 4.34 1.98 4 3 C3.01 3 2.02 3 1 3 C1 3.66 1 4.32 1 5 C0.34 5 -0.32 5 -1 5 C-0.67 3.35 -0.34 1.7 0 0 Z " fill="#C33941" transform="translate(329,59)"/>
<path d="M0 0 C1.65 0 3.3 0 5 0 C4.67 1.65 4.34 3.3 4 5 C2.68 5 1.36 5 0 5 C0 3.35 0 1.7 0 0 Z " fill="#9C9FC6" transform="translate(59,17)"/>
<path d="M0 0 C0.99 0 1.98 0 3 0 C2.67 2.31 2.34 4.62 2 7 C0.68 6.67 -0.64 6.34 -2 6 C-1.34 4.02 -0.68 2.04 0 0 Z " fill="#DD292D" transform="translate(283,66)"/>
<path d="M0 0 C2.0625 0.4375 2.0625 0.4375 4 1 C3.67 2.32 3.34 3.64 3 5 C2.01 5 1.02 5 0 5 C-0.5625 3.0625 -0.5625 3.0625 -1 1 C-0.67 0.67 -0.34 0.34 0 0 Z " fill="#DD2326" transform="translate(334,59)"/>
<path d="M0 0 C1.98 0 3.96 0 6 0 C6 1.32 6 2.64 6 4 C4.68 3.67 3.36 3.34 2 3 C2 2.34 2 1.68 2 1 C1.34 0.67 0.68 0.34 0 0 Z " fill="#0103F6" transform="translate(220,51)"/>
<path d="M0 0 C2.31 0.66 4.62 1.32 7 2 C7 2.99 7 3.98 7 5 C4.11424181 4.60196439 3.17810487 4.20990931 1.25 1.9375 C0.8375 1.298125 0.425 0.65875 0 0 Z " fill="#CA3C43" transform="translate(69,41)"/>
<path d="M0 0 C3.37462715 0.54723683 5.08235 1.0549 8 3 C8 3.66 8 4.32 8 5 C4.62496331 3.8141763 2.35277269 2.72426311 0 0 Z " fill="#BE4044" transform="translate(61,36)"/>
<path d="M0 0 C1.48117801 0.28127421 2.95993249 0.57533732 4.4375 0.875 C5.67306641 1.11863281 5.67306641 1.11863281 6.93359375 1.3671875 C7.61550781 1.57601562 8.29742187 1.78484375 9 2 C9.33 2.66 9.66 3.32 10 4 C7.03 3.505 7.03 3.505 4 3 C3.67 3.66 3.34 4.32 3 5 C1.5 3.625 1.5 3.625 0 2 C0 1.34 0 0.68 0 0 Z " fill="#0C08D5" transform="translate(47,34)"/>
</svg>
